<?xml version="1.0" standalone="no"?>
<!DOCTYPE svg PUBLIC "-//W3C//DTD SVG 20010904//EN"
 "http://www.w3.org/TR/2001/REC-SVG-20010904/DTD/svg10.dtd">
<svg version="1.0" xmlns="http://www.w3.org/2000/svg"
 width="700.000000pt" height="700.000000pt" viewBox="0 0 700.000000 700.000000"
 preserveAspectRatio="xMidYMid meet">
<metadata>
Created by potrace 1.14, written by Peter Selinger 2001-2017
</metadata>
<g transform="translate(0.000000,700.000000) scale(0.100000,-0.100000)"
fill="#000000" stroke="none">
<path d="M4423 6980 c-21 -13 -35 -31 -42 -57 -9 -30 -81 -529 -81 -556 0 -4
-44 -29 -98 -56 -54 -27 -135 -74 -179 -105 l-81 -55 -276 110 c-295 118 -312
122 -354 76 -11 -12 -117 -191 -236 -397 -221 -383 -232 -406 -203 -456 7 -12
113 -100 237 -196 l225 -175 -1 -211 -1 -211 -219 -172 c-121 -95 -227 -181
-236 -193 -40 -48 -31 -70 201 -471 123 -214 231 -389 245 -399 48 -36 56 -33
579 181 l37 15 88 -60 c48 -33 129 -80 180 -106 50 -25 92 -49 92 -53 0 -27
72 -526 81 -556 7 -26 21 -44 42 -57 30 -19 54 -20 477 -20 423 0 447 1 477
20 21 13 35 32 43 57 8 31 80 525 80 554 0 5 40 29 88 53 48 24 130 72 180
106 l93 62 265 -108 c146 -59 279 -107 295 -107 62 0 54 -12 430 642 91 159
102 192 76 238 -7 12 -113 102 -237 199 -195 154 -225 181 -223 203 5 74 3
325 -2 354 l-7 34 228 177 c126 97 234 187 241 199 17 31 16 72 -3 110 -49 93
-419 725 -436 744 -42 45 -58 41 -352 -76 l-275 -111 -82 55 c-44 31 -125 78
-180 105 -54 28 -99 54 -99 59 0 29 -72 523 -80 554 -8 25 -22 44 -43 57 -30
19 -54 20 -477 20 -423 0 -447 -1 -477 -20z m661 -1370 c128 -32 228 -91 332
-195 149 -148 215 -306 215 -515 0 -209 -66 -366 -215 -516 -150 -150 -305
-214 -516 -214 -211 0 -365 64 -516 215 -78 77 -98 105 -137 185 -59 121 -77
198 -77 330 0 132 18 209 77 330 39 80 59 108 137 185 103 103 203 162 328
195 102 26 269 27 372 0z"/>
<path d="M1250 3844 c-19 -3 -79 -14 -134 -25 -550 -114 -962 -528 -1088
-1090 -32 -146 -32 -406 0 -556 64 -295 193 -526 410 -734 199 -192 428 -310
708 -366 134 -26 396 -24 531 5 295 64 526 193 734 410 188 195 302 411 361
685 29 135 31 397 5 531 -56 280 -174 509 -366 708 -207 216 -441 347 -729
408 -94 20 -347 34 -432 24z"/>
<path d="M4587 1740 c-337 -57 -602 -293 -704 -627 -23 -78 -26 -104 -26 -233
0 -173 18 -254 89 -396 168 -340 550 -535 922 -470 188 33 340 112 473 245
134 135 212 286 245 473 71 405 -160 807 -550 959 -132 51 -315 71 -449 49z"/>
</g>
</svg>
